<?xml version="1.0" standalone="no"?>
<!DOCTYPE svg PUBLIC "-//W3C//DTD SVG 1.1//EN" "http://www.w3.org/Graphics/SVG/1.1/DTD/svg11.dtd" >
<svg xmlns="http://www.w3.org/2000/svg">
<metadata></metadata>
<defs>
<font id="RockwellStdBold" horiz-adv-x="724" >
<font-face units-per-em="2048" ascent="1391" descent="-657" />
<missing-glyph horiz-adv-x="512" />
<glyph unicode="&#xfb01;" horiz-adv-x="1280" d="M63 0v223h150v522h-150v224h150v82q0 160 125 262t334 102q262 0 363 -119q44 -51 67 -129l-305 -32q-29 78 -135 77q-63 0 -99.5 -30.5t-36.5 -108.5v-104h572v-746h149v-223h-555v223h92v522h-258v-522h95v-223h-558z" />
<glyph unicode="&#xfb02;" horiz-adv-x="1280" d="M63 0v223h150v522h-150v224h150v82q0 150 118 257t351 107q106 1 174 -24h242v-1168h149v-223h-555v223h92v903q-6 43 -42.5 64.5t-90 21.5t-89.5 -30.5t-36 -108.5v-104h140v-224h-140v-522h95v-223h-558z" />
<glyph horiz-adv-x="0" />
<glyph horiz-adv-x="2048" />
<glyph unicode="&#xd;" horiz-adv-x="681" />
<glyph unicode=" "  horiz-adv-x="512" />
<glyph unicode="&#x09;" horiz-adv-x="512" />
<glyph unicode="&#xa0;" horiz-adv-x="512" />
<glyph unicode="!" d="M195 0v336h335v-336h-335zM207 1010v381h311v-381l-82 -525h-147z" />
<glyph unicode="&#x22;" horiz-adv-x="1130" d="M211 1055v336h221v-336l-29 -367h-163zM698 1055v336h222v-336l-29 -367h-164z" />
<glyph unicode="#" horiz-adv-x="1368" d="M72 340v223h194l56 266h-250v224h299l78 374h233l-78 -374h305l76 374h236l-78 -374h151v-224h-196l-58 -266h254v-223h-299l-80 -367h-233l80 367h-311l-78 -367h-234l78 367h-145zM500 563h309l55 266h-309z" />
<glyph unicode="$" horiz-adv-x="1153" d="M94 389h246q-6 -66 31 -132.5t104 -74.5v424q-195 92 -276.5 184.5t-81.5 226.5t99 230t259 111v88h141v-88q180 -14 280.5 -114.5t100.5 -254.5h-245q-20 152 -136 166v-332q223 -88 332 -187t109 -270.5t-122 -277.5t-319 -111v-174h-141v174q-184 29 -279.5 126.5 t-101.5 285.5zM362 1038q0 -45 23.5 -75.5t89.5 -71.5v264q-113 -20 -113 -117zM616 174q88 0 142.5 47t54.5 117q0 131 -197 207v-371z" />
<glyph unicode="%" horiz-adv-x="1898" d="M86 1052q0 175 85 269t240.5 94t240.5 -94t85 -269t-85 -269.5t-240.5 -94.5t-240.5 94.5t-85 269.5zM326 1063q0 -125 19.5 -176t68.5 -51q84 -1 84 208q0 123 -20.5 173.5t-69.5 50.5q-82 0 -82 -205zM358 0l1006 1391h180l-1007 -1391h-179zM1157 329q0 175 85 269 t240.5 94t240.5 -94t85 -269t-85 -269.5t-240.5 -94.5t-240.5 94.5t-85 269.5zM1397 340q0 -125 19.5 -176t68.5 -51q84 0 84 209q0 123 -20.5 173t-69.5 50q-82 0 -82 -205z" />
<glyph unicode="&#x26;" horiz-adv-x="1642" d="M76 403q0 272 385 449q-111 131 -111 262t104.5 215t271.5 84t271.5 -80t104.5 -205q0 -193 -242 -315l199 -252q115 160 168 289h332v-223h-168q-70 -152 -164 -260l108 -144h224v-223h-412l-125 154q-197 -178 -451 -179q-213 0 -354 122t-141 306zM393 446 q0 -88 68.5 -149t176 -61.5t228.5 112.5l-264 332q-209 -84 -209 -234zM629 1141q0 -37 92 -152q135 57 135 139q0 41 -34 71t-81 30t-79.5 -25.5t-32.5 -62.5z" />
<glyph unicode="'" horiz-adv-x="575" d="M178 1055v336h221v-336l-28 -367h-164z" />
<glyph unicode="(" horiz-adv-x="704" d="M94 487.5q0 360.5 150.5 590t402.5 333.5v-201q-137 -74 -186 -243.5t-49 -479t49 -479.5t186 -244v-200q-252 104 -402.5 333.5t-150.5 590z" />
<glyph unicode=")" horiz-adv-x="704" d="M57 -236q137 74 186.5 244t49.5 479.5t-49 479.5t-187 243v201q252 -104 402.5 -333.5t150.5 -590t-150.5 -590t-402.5 -333.5v200z" />
<glyph unicode="*" horiz-adv-x="1173" d="M78 928l82 227l166 -49q31 -45 72.5 -75t136.5 -77q-10 164 -72 267v170h248v-170q-51 -78 -74 -267q96 47 138 77t73 75l166 49l82 -227l-170 -66q-70 23 -111 21t-147 -21q109 -129 204 -164l99 -139l-201 -141l-102 141q0 106 -82 240q-82 -133 -80 -240l-103 -141 l-200 141l98 139q57 20 96 52t109 112q-119 23 -162 22t-96 -22z" />
<glyph unicode="+" horiz-adv-x="1368" d="M119 561v260h434v434h260v-434h434v-260h-434v-434h-260v434h-434z" />
<glyph unicode="," d="M195 0v336h335v-336q0 -190 -77.5 -278.5t-255.5 -88.5v152q88 10 126.5 60.5t38.5 154.5h-167z" />
<glyph unicode="-" horiz-adv-x="704" d="M72 348v270h559v-270h-559z" />
<glyph unicode="." d="M195 0v336h335v-336h-335z" />
<glyph unicode="/" horiz-adv-x="1040" d="M8 -25l740 1416h284l-737 -1416h-287z" />
<glyph unicode="0" horiz-adv-x="1130" d="M88 698.5q0 348.5 123 532.5t354.5 184t354 -184t122.5 -532.5t-122.5 -532.5t-354 -184t-354.5 184t-123 532.5zM406 697q0 -255 38.5 -372.5t121.5 -117.5t121 112.5t38 382.5t-40 379t-122 109t-119.5 -119t-37.5 -374z" />
<glyph unicode="1" horiz-adv-x="1130" d="M221 1167v224h510v-1168h182v-223h-680v223h193v944h-205z" />
<glyph unicode="2" horiz-adv-x="1130" d="M90 0v74q0 158 59.5 286.5t143.5 213.5t169 159t144.5 154t59.5 153.5t-38 115.5t-96 42q-86 0 -122.5 -68.5t-44.5 -224.5l-256 13q-6 254 119.5 375.5t322 121.5t314.5 -106.5t118 -278.5q0 -113 -56.5 -202t-140.5 -150.5t-171 -120.5t-158.5 -144t-91.5 -190h405v180 h221v-403h-901z" />
<glyph unicode="3" horiz-adv-x="1130" d="M90 426l268 20q6 -121 46 -180t128.5 -59t140.5 56t52 157t-65.5 156t-196.5 40v234q109 2 168 49t59 126t-41 122t-109.5 43t-108.5 -48t-38 -136l-260 20q10 184 123 286.5t309.5 102.5t311 -98t114.5 -268q0 -215 -207 -316q258 -86 258 -334q0 -188 -130 -302.5 t-345 -114.5q-440 0 -477 444z" />
<glyph unicode="4" horiz-adv-x="1130" d="M8 573l598 840h273v-840h135v-190h-135v-178h116v-205h-553v205h150v178h-510q-29 98 -74 190zM248 573h344v484h-4z" />
<glyph unicode="5" horiz-adv-x="1130" d="M74 373l262 33q16 -106 59 -152.5t125 -46.5q186 0 186.5 238.5t-180.5 238.5q-100 0 -168 -109l-221 111l39 705h782v-328h-202l-21 104h-358l-19 -333q115 80 238 79q193 0 310.5 -125.5t117.5 -330.5q0 -179 -102 -317q-52 -72 -150 -115t-231 -43 q-201 0 -320.5 100.5t-146.5 290.5z" />
<glyph unicode="6" horiz-adv-x="1130" d="M92 683q0 357 129 543.5t389 186.5q174 0 276 -98.5t118 -274.5l-240 -20q-25 86 -58.5 131t-114.5 45t-138.5 -102.5t-59.5 -292.5q102 90 258 90t262.5 -110.5t106.5 -307.5q0 -244 -111.5 -367.5t-314.5 -123.5q-256 0 -379 172t-123 529zM393 606q2 -195 46 -297 t149 -102q72 0 110.5 61.5t38.5 168.5t-46 168t-130 60.5t-168 -59.5z" />
<glyph unicode="7" horiz-adv-x="1130" d="M139 979v412h869v-172q-119 -147 -219.5 -456.5t-100.5 -539.5h176v-223h-671v223h172q12 211 114.5 484.5t239.5 466.5h-354v-195h-226z" />
<glyph unicode="8" horiz-adv-x="1130" d="M80 391q0 246 248 340q-207 113 -207 322q0 166 120.5 264t323.5 98t324 -98t121 -264q0 -209 -207 -322q250 -94 250 -340q0 -172 -120 -290.5t-368 -118.5t-366.5 116.5t-118.5 292.5zM379 413.5q0 -96.5 51 -155.5t137 -59t136.5 58t50.5 157.5t-49.5 159t-135.5 59.5 t-138 -61.5t-52 -158zM403 1013q0 -85 44 -135.5t120 -50.5t118 49.5t42 133.5t-40 136t-119 52t-122 -50t-43 -135z" />
<glyph unicode="9" horiz-adv-x="1130" d="M111 922q0 244 111.5 367.5t314.5 123.5q256 0 378.5 -172t122.5 -529t-129 -543.5t-389 -186.5q-174 0 -275.5 98t-117.5 274l240 21q25 -86 58.5 -131t114 -45t138 102t59.5 293q-102 -90 -257.5 -90t-262 110.5t-106.5 307.5zM393 957.5q0 -107.5 46 -168t130 -60.5 t168 59q-2 195 -46 297.5t-148 102.5q-72 0 -111 -61.5t-39 -169z" />
<glyph unicode=":" d="M195 0v336h335v-336h-335zM195 633v336h335v-336h-335z" />
<glyph unicode=";" d="M195 0v336h335v-336q0 -190 -77.5 -278.5t-255.5 -88.5v152q88 10 126.5 60.5t38.5 154.5h-167zM195 633v336h335v-336h-335z" />
<glyph unicode="&#x3c;" horiz-adv-x="1366" d="M119 565v238l1126 467v-283l-768 -303l768 -303v-283z" />
<glyph unicode="=" horiz-adv-x="1366" d="M119 313v260h1128v-260h-1128zM119 795v260h1128v-260h-1128z" />
<glyph unicode="&#x3e;" horiz-adv-x="1366" d="M121 98v283l768 303l-768 303v283l1126 -467v-238z" />
<glyph unicode="?" horiz-adv-x="1153" d="M55 993q0 203 135.5 312.5t362.5 109.5t359 -109.5t132 -290.5t-116.5 -289t-315.5 -99l-32 -146h-144l-28 355l12 6q121 -31 214 14t93 160q0 72 -47 128t-139 56t-143.5 -54t-32.5 -153h-310zM338 0v336h336v-336h-336z" />
<glyph unicode="@" horiz-adv-x="2004" d="M61 483q0 288 139 534q76 136 190 239.5t294.5 169t405.5 65.5q377 0 612 -215t235 -547q0 -295 -189 -512t-472 -217q-156 0 -182 117q-111 -117 -282 -117t-272.5 123t-101.5 319q0 189 130 402q61 102 169.5 170.5t239.5 68.5q176 0 266 -135l25 111h264l-164 -772 q-16 -82 39 -82q33 0 88 35.5t115.5 99t103.5 170t43 216t-37 206t-111.5 183.5t-213 141.5t-309.5 54.5t-307 -45t-231 -124t-162 -184q-130 -205 -130 -475q0 -348 220 -538.5t628 -190.5q461 0 674 264h213q-227 -444 -908 -444q-264 0 -464.5 72.5t-319.5 199.5 q-238 254 -238 637zM696 434.5q0 -127.5 50.5 -190t140.5 -62.5t163.5 87t105.5 195.5t32 210t-51.5 165t-131 63.5t-143 -51t-97.5 -130q-69 -160 -69 -287.5z" />
<glyph unicode="A" horiz-adv-x="1429" d="M-4 0v236h174l272 919h-186v236h907v-236h-186l291 -919h164v-236h-676v236h174l-66 237h-360l-76 -237h186v-236h-618zM565 678h242l-113 420h-4z" />
<glyph unicode="B" horiz-adv-x="1429" d="M66 0v236h174v919h-174v236h722q131 0 222.5 -21.5t154.5 -85.5q106 -106 107 -258q0 -205 -197 -287q250 -94 250 -333q0 -176 -128 -291t-386 -115h-745zM602 236h146q115 0 159.5 49t44.5 138t-55 136t-139 47h-156v-370zM602 842h141q80 0 123 44t43 118 q0 151 -180 151h-2h-125v-313z" />
<glyph unicode="C" horiz-adv-x="1599" d="M76 696q0 317 202.5 517t528.5 200q252 0 418 -131v109h235v-490h-235q-49 127 -114 177t-114 68.5t-118 18.5q-186 0 -300 -130t-114 -338t108.5 -334.5t268 -126.5t261 95t140.5 267l275 -131q-72 -258 -261.5 -371.5t-427.5 -113.5q-170 0 -305 46t-217 117.5 t-136 168.5q-95 172 -95 382z" />
<glyph unicode="D" horiz-adv-x="1642" d="M68 0v236h211v919h-211v236h727q195 0 330 -43t237 -146q199 -199 199 -499t-175.5 -501.5t-490.5 -201.5h-827zM641 236h137q203 0 304.5 120.5t101.5 339.5t-107.5 339t-310.5 120h-125v-919z" />
<glyph unicode="E" horiz-adv-x="1366" d="M70 0v236h163v919h-163v236h1222v-441h-264v205h-432v-319h348v-236h-348v-364h432v206h264v-442h-1222z" />
<glyph unicode="F" horiz-adv-x="1323" d="M57 0v236h199v919h-199v236h1246v-428h-267v192h-418v-321h302v-236h-302v-362h213v-236h-774z" />
<glyph unicode="G" horiz-adv-x="1728" d="M98 701q0 312 206 512t532 200q281 0 434 -137v115h235v-494h-235q-41 123 -144 196q-101 72 -235 72h-4q-178 0 -289 -122.5t-111 -321.5q0 -244 121 -364.5t289 -120.5q254 0 322 231h-244v235h651q1 -24 1 -48q0 -131 -38 -240q-45 -129 -122.5 -208t-182.5 -131 q-189 -93 -412 -93q-373 0 -573.5 203.5t-200.5 515.5z" />
<glyph unicode="H" horiz-adv-x="1556" d="M63 0v236h164v919h-164v236h668v-236h-141v-305h379v305h-142v236h668v-236h-164v-919h164v-236h-668v236h142v378h-379v-378h141v-236h-668z" />
<glyph unicode="I" horiz-adv-x="874" d="M45 0v236h211v919h-211v236h784v-236h-211v-919h211v-236h-784z" />
<glyph unicode="J" horiz-adv-x="831" d="M-2 -152q66 -16 104 -16q156 0 156 168v1155h-207v236h756v-236h-186v-1128q0 -219 -106.5 -337t-307.5 -118q-86 0 -209 25v251z" />
<glyph unicode="K" horiz-adv-x="1599" d="M41 0v236h188v919h-188v236h719v-236h-168v-919h168v-236h-719zM602 731l455 424h-164v236h680v-236h-174l-391 -383l456 -536h142v-236h-748v236h164z" />
<glyph unicode="L" horiz-adv-x="1323" d="M57 0v236h199v919h-199v236h764v-236h-203v-919h410v430h272v-666h-1243z" />
<glyph unicode="M" horiz-adv-x="2134" d="M57 0v236h181v919h-181v236h697l305 -816l317 816h705v-236h-180v-919h182v-236h-717v236h182v919h-32l-435 -1155h-151l-434 1155h-33v-919h182v-236h-588z" />
<glyph unicode="N" horiz-adv-x="1622" d="M43 0v236h186v919h-186v236h582l510 -869h4v633h-181v236h625v-236h-197v-1155h-311l-594 1022h-4v-786h174v-236h-608z" />
<glyph unicode="O" horiz-adv-x="1748" d="M102 702.5q0 290.5 203.5 500.5t568.5 210q188 0 339 -59.5t244 -160.5q192 -209 192 -497q0 -282 -189 -490q-92 -102 -243.5 -163t-341 -61t-341 60t-243.5 162q-189 208 -189 498.5zM492 706.5q0 -217.5 106.5 -344t270 -126.5t277.5 118.5t114 336.5t-110 343 t-270 125t-274 -117.5t-114 -335z" />
<glyph unicode="P" horiz-adv-x="1366" d="M63 0v236h175v919h-175v236h791q213 0 343 -127t130 -318t-127 -315.5t-375 -124.5h-225v-270h193v-236h-730zM600 741h100q242 0 242 205q0 94 -57.5 151.5t-145.5 57.5h-139v-414z" />
<glyph unicode="Q" horiz-adv-x="1748" d="M102 694q0 272 178 484q89 106 242.5 170.5t347.5 64.5t345 -60.5t244 -162.5q190 -210 190 -503.5t-198 -487t-488 -211.5v-4q45 -15 124.5 -49.5t128.5 -48.5q45 -12 74 -12h4q31 1 90 7l-86 -229q-16 -2 -33 -2q-73 0 -161 36q-109 44 -215.5 94t-177.5 50 q-106 0 -203 -84l-90 135q78 92 235 117v4q-252 59 -401.5 246.5t-149.5 445.5zM492 706.5q0 -217.5 106.5 -344t270 -126.5t277.5 118.5t114 336.5t-110 343t-270 125t-274 -117.5t-114 -335z" />
<glyph unicode="R" horiz-adv-x="1492" d="M47 0v236h191v919h-191v236h866q195 0 306.5 -112t111.5 -278q0 -238 -239 -346l225 -419h180v-236h-424l-313 610h-160v-374h174v-236h-727zM600 834h145q111 0 160 49t49 110t-40 111.5t-130 50.5h-184v-321z" />
<glyph unicode="S" horiz-adv-x="1087" d="M76 1026q0 186 113.5 282.5t271.5 96.5t244 -129h4v115h233v-422h-233q-14 96 -67.5 150.5t-123 54.5t-108.5 -32t-39 -82t47 -92t118.5 -70t154.5 -71t155 -91t119 -137t47 -205t-41 -202t-107 -129q-123 -81 -256 -81q-186 0 -278 135h-4v-117h-236v473h236v-7 q0 -106 59 -174q61 -70 139 -70.5t123 42.5t45 104.5t-46 108.5t-113.5 79t-148.5 75t-148.5 88t-113.5 125t-46 182z" />
<glyph unicode="T" horiz-adv-x="1386" d="M61 831v560h1264v-560h-242v324h-209v-919h209v-236h-780v236h209v919h-209v-324h-242z" />
<glyph unicode="U" horiz-adv-x="1386" d="M29 1155v236h647v-236h-121v-706q0 -111 41 -170.5t139 -59.5q193 0 193 217v719h-115v236h537v-236h-174v-778q0 -115 -46.5 -197t-121.5 -122q-140 -74 -312 -74q-227 0 -365 103t-138 341v727h-164z" />
<glyph unicode="V" horiz-adv-x="1429" d="M0 1155v236h688v-236h-160l232 -696h4l233 696h-153v236h586v-236h-164l-404 -1165h-280l-418 1165h-164z" />
<glyph unicode="W" horiz-adv-x="2027" d="M-2 1155v236h625v-236h-142l224 -668h4l211 668h-127v236h499v-236h-129l226 -668h4l219 668h-144v236h562v-236h-152l-389 -1165h-252l-221 635h-4l-209 -635h-256l-402 1165h-147z" />
<glyph unicode="X" horiz-adv-x="1515" d="M-4 0v236h201l342 479l-338 440h-191v236h715v-222h-133l207 -260l188 260h-127v222h619v-236h-195l-330 -455l357 -464h209v-236h-744v221h142l-216 289l-208 -289h141v-221h-639z" />
<glyph unicode="Y" horiz-adv-x="1429" d="M-8 1155v236h684v-236h-127l211 -340l203 340h-121v236h596v-236h-174l-363 -545v-374h197v-236h-746v236h197v374l-383 545h-174z" />
<glyph unicode="Z" horiz-adv-x="1323" d="M102 0v236l660 919h-387v-252h-236v488h1075v-209l-679 -946h456v266h236v-502h-1125z" />
<glyph unicode="[" horiz-adv-x="854" d="M225 -416v1807h566v-207h-252v-1393h252v-207h-566z" />
<glyph unicode="\" horiz-adv-x="1040" d="M8 1391h285l739 -1416h-287z" />
<glyph unicode="]" horiz-adv-x="854" d="M63 -209h252v1393h-252v207h566v-1807h-566v207z" />
<glyph unicode="^" horiz-adv-x="1193" d="M115 592l377 799h221l366 -799h-284l-197 489l-197 -489h-286z" />
<glyph unicode="_" horiz-adv-x="1024" d="M-12 -154h1048v-102h-1048v102z" />
<glyph unicode="`" horiz-adv-x="681" d="M16 1411h369l160 -317h-160z" />
<glyph unicode="a" horiz-adv-x="1193" d="M82 294q0 136 111.5 228t285.5 92q94 0 219 -43v54q0 76 -51 123t-141 47t-168 -76l-250 43q113 229 469 229q238 0 346.5 -88t108.5 -282v-398h155v-223h-469v76q-127 -90 -270.5 -90t-244.5 86t-101 222zM379 306q0 -54 37 -91t90 -37q82 0 192 101v79 q-106 70 -172.5 70t-106.5 -34t-40 -88z" />
<glyph unicode="b" horiz-adv-x="1280" d="M29 0v223h164v944h-164v224h477v-531q66 72 129 101.5t147 29.5q186 0 302 -140t116 -364q0 -135 -40 -237.5t-104 -157.5q-122 -106 -275 -106t-275 125v-111h-477zM504 481q0 -119 51 -187.5t139 -68.5t138.5 69.5t50.5 190.5t-48.5 186.5t-138.5 65.5t-141 -68.5 t-51 -187.5z" />
<glyph unicode="c" horiz-adv-x="1153" d="M66 478q0 222 139 363.5t350 141.5q150 0 293 -94v80h213v-394h-213q-74 162 -238 162q-104 0 -165.5 -67.5t-61.5 -188.5t58.5 -192.5t146.5 -71.5q171 0 260 160l239 -107q-131 -293 -469 -293q-250 0 -401 139.5t-151 361.5z" />
<glyph unicode="d" horiz-adv-x="1280" d="M80 488q0 214 121 358.5t293 144.5t284 -129v305h-149v224h463v-1168h149v-223h-463v115q-131 -129 -294.5 -129t-283.5 144t-120 358zM397 484q0 -118 51.5 -188.5t135.5 -70.5t141 66.5t57 187.5t-53 189.5t-142 68.5t-139.5 -67.5t-50.5 -185.5z" />
<glyph unicode="e" horiz-adv-x="1173" d="M76 468q0 226 147.5 374.5t373.5 148.5q227 -1 373 -159q130 -141 130 -358q0 -27 -2 -54h-709q2 -98 59.5 -170t178.5 -72q61 0 109 25t116 88l246 -76q-154 -238 -475 -238q-252 0 -399.5 132.5t-147.5 358.5zM389 592h404q-12 92 -66.5 144t-138.5 52h-2 q-170 0 -197 -196z" />
<glyph unicode="f" d="M68 0v223h133v522h-133v224h133v82q0 152 92 258t299 106t307 -135l-235 -176q-18 61 -33 82.5t-45 21.5q-72 0 -72 -135v-104h150v-224h-150v-522h150v-223h-596z" />
<glyph unicode="g" horiz-adv-x="1280" d="M74 486q0 212 119.5 354.5t295 142.5t279.5 -133h4v119h477v-224h-164v-722q0 -213 -119.5 -343.5t-401.5 -130.5t-421 107l150 203q119 -70 243.5 -70t180 66.5t55.5 171.5v94q-154 -131 -295 -131q-172 0 -287.5 142t-115.5 354zM391 483.5q0 -112.5 51.5 -180 t136.5 -67.5t139 67t54 179t-52 179.5t-140 67.5t-138.5 -66.5t-50.5 -179z" />
<glyph unicode="h" horiz-adv-x="1280" d="M55 0v223h150v944h-150v224h463v-500q88 59 145.5 79.5t129.5 20.5q143 0 222 -86t79 -217v-465h141v-223h-455v621q0 63 -22.5 89.5t-83 26.5t-156.5 -59v-455h141v-223h-604z" />
<glyph unicode="i" d="M88 0v223h141v522h-141v224h455v-746h141v-223h-596zM221 1244.5q0 70.5 49 119.5t120 49t120 -49t49 -118.5t-50 -120t-120 -50.5t-119 49.5t-49 120z" />
<glyph unicode="j" d="M-14 -174h73q88 0 128 30.5t40 116.5v772h-149v224h463v-1000q0 -215 -102.5 -306t-340.5 -91q-39 0 -112 4v250zM207 1244.5q0 70.5 48 119.5t119.5 49t121 -49t49.5 -118.5t-49.5 -120t-120 -50.5t-119.5 49.5t-49 120z" />
<glyph unicode="k" horiz-adv-x="1323" d="M72 0v215h149v952h-149v224h463v-877h4l329 256v4h-213v195h602v-195h-106l-283 -244l258 -315h131v-215h-294l-424 512h-4v-297h120v-215h-583z" />
<glyph unicode="l" d="M74 0v223h149v944h-149v224h463v-1168h139v-223h-602z" />
<glyph unicode="m" horiz-adv-x="2027" d="M39 0v223h180v522h-180v224h493v-80q162 94 308 94q203 0 297 -133q197 133 383 133q332 0 331 -319v-441h193v-223h-506v563q0 156 -127 156q-98 0 -219 -66v-430h174v-223h-487v563q0 82 -30 119t-108.5 37t-208.5 -66v-430h175v-223h-668z" />
<glyph unicode="n" horiz-adv-x="1280" d="M74 0v223h149v522h-149v224h463v-90q141 104 269 104t216 -77t88 -253v-430h141v-223h-454v614q0 109 -90 109q-82 0 -170 -64v-436h129v-223h-592z" />
<glyph unicode="o" horiz-adv-x="1173" d="M78 488.5q0 238.5 148.5 370.5t364.5 132t360.5 -135t144.5 -366.5t-141.5 -372t-365.5 -140.5t-367.5 136.5t-143.5 375zM395 483q0 -127 50.5 -196.5t141.5 -69.5t141 70.5t50 197.5t-50 197t-142 70t-141.5 -71t-49.5 -198z" />
<glyph unicode="p" horiz-adv-x="1280" d="M35 -211h164v956h-164v224h477v-123q123 137 290 137t284.5 -144.5t117.5 -362.5t-116.5 -358.5t-285 -140.5t-290.5 121v-309h184v-223h-661v223zM510 476q0 -120 51 -189.5t139 -69.5t137.5 69.5t49.5 189.5t-51.5 186.5t-139.5 66.5t-137 -66.5t-49 -186.5z" />
<glyph unicode="q" horiz-adv-x="1280" d="M76 476q0 218 117.5 362.5t284.5 144.5t290 -137v123h477v-224h-164v-956h164v-223h-661v223h184v309q-123 -121 -290.5 -121t-284.5 140.5t-117 358.5zM393 476q0 -120 49.5 -189.5t137.5 -69.5t139 70.5t51 189.5t-50 185.5t-137 66.5t-138.5 -66.5t-51.5 -186.5z" />
<glyph unicode="r" horiz-adv-x="917" d="M55 0v223h181v522h-164v224h444v-246h4q43 125 130 192.5t208 67.5h45v-293h-37q-317 0 -317 -364v-103h188v-223h-682z" />
<glyph unicode="s" horiz-adv-x="1044" d="M82 708.5q0 114.5 101.5 194.5t244.5 80t256 -47v33h221v-281h-221q-27 100 -211 100q-61 0 -97 -20t-36 -55t64.5 -53.5t157.5 -33t186.5 -41t158 -96t64.5 -198.5t-99.5 -219t-277.5 -90t-250 67v-49h-225v334h225q2 -63 59.5 -106.5t142.5 -43.5t128 26t43 71 t-61.5 68.5t-144.5 30.5t-187.5 42t-173 103.5t-68.5 183z" />
<glyph unicode="t" horiz-adv-x="704" d="M39 745v224h123v151l313 221v-372h174v-224h-174v-419q0 -63 15.5 -82t59.5 -19t99 19v-209q-117 -49 -227 -49t-185 56t-75 175v528h-123z" />
<glyph unicode="u" horiz-adv-x="1280" d="M29 745v224h454v-604q0 -72 20.5 -98.5t83.5 -26.5t156 69v436h-129v224h443v-746h149v-223h-463v82q-139 -96 -276 -96t-217 80.5t-80 220.5v458h-141z" />
<glyph unicode="v" horiz-adv-x="1173" d="M-8 745v224h569v-224h-100l151 -440l181 440h-101v224h490v-224h-142l-315 -759h-264l-328 759h-141z" />
<glyph unicode="w" horiz-adv-x="1665" d="M0 745v224h526v-224h-104l117 -360h4l194 584h258l197 -584h4l111 360h-113v224h469v-224h-121l-250 -759h-266l-188 569h-4l-187 -569h-270l-254 759h-123z" />
<glyph unicode="x" horiz-adv-x="1153" d="M45 0v223h141l209 250l-209 272h-141v224h373l174 -267l190 267h293v-224h-131l-194 -233l227 -289h131v-223h-373l-188 272l-201 -272h-301z" />
<glyph unicode="y" horiz-adv-x="1216" d="M8 745v224h561v-224h-94l162 -434l172 434h-104v224h491v-224h-141l-465 -1179h-338v223h184l64 172l-350 784h-142z" />
<glyph unicode="z" horiz-adv-x="1087" d="M72 0v197l569 571h-311v-145h-211v346h891v-201l-568 -571h365v163h203v-360h-938z" />
<glyph unicode="{" horiz-adv-x="788" d="M59 362v230q123 0 171.5 71.5t48.5 219.5v125q0 90 12 150.5t49 117.5q75 115 315 115h88v-236h-87q-29 0 -58 -13.5t-38 -23.5t-17 -52t-8 -76v-116q0 -166 -40 -248.5t-143 -148.5q102 -66 142.5 -148.5t40.5 -248.5v-116q0 -34 8 -76t17 -52t38 -23.5t58 -13.5h87 v-235h-88q-241 0 -315 114q-37 58 -49 118.5t-12 150.5v125q0 147 -48.5 218.5t-171.5 71.5z" />
<glyph unicode="|" horiz-adv-x="1251" d="M494 -440v1831h264v-1831h-264z" />
<glyph unicode="}" horiz-adv-x="788" d="M45 -201h88q29 0 57.5 13.5t38 23.5t17.5 52t8 76v116q0 166 40 249t142 148q-102 66 -142 149t-40 206v158q0 34 -8 76t-17.5 52t-38 23.5t-57.5 13.5h-88v236h88q242 0 315 -115q37 -57 49.5 -117.5t12.5 -150.5v-125q0 -147 48 -219t171 -72v-230q-123 0 -171 -71.5 t-48 -218.5v-125q0 -90 -12.5 -150.5t-49.5 -118.5q-72 -114 -315 -114h-88v235z" />
<glyph unicode="~" horiz-adv-x="1193" d="M66 520v258q129 137 301 137q113 0 267 -66.5t220 -66.5q145 0 274 142v-271q-57 -55 -137 -94t-163.5 -39t-243.5 71t-244 71q-139 -1 -274 -142z" />
<glyph unicode="&#xa1;" d="M195 633v336h335v-336h-335zM207 -41l82 524h147l82 -524v-381h-311v381z" />
<glyph unicode="&#xa2;" horiz-adv-x="1153" d="M63 481q0 262 191.5 402.5t423.5 83.5l164 438h129l-174 -487q51 -29 86 -56v107h182v-400h-211q-63 111 -137 142l-172 -478q208 -68 309 146l238 -107q-63 -164 -239.5 -245.5t-391.5 -30.5l-150 -447h-133l168 486q-283 135 -283 446zM381 483.5q0 -106.5 61 -174.5 l150 424q-96 -6 -153.5 -74.5t-57.5 -175z" />
<glyph unicode="&#xa3;" horiz-adv-x="1173" d="M115 216q0 101 62.5 167t142 66t169.5 -41q0 70 -38 180h-304v205h201q-98 188 -98 301q0 143 117.5 232t300 89t282 -91t113.5 -263l-240 -31q-6 102 -43 146.5t-104 44.5t-107.5 -32t-40.5 -77t19.5 -92t55.5 -114.5t54 -112.5h258v-205h-213q16 -154 -20 -275 q86 -37 149 -37q132 1 146 173l143 -29q6 -213 -71.5 -325.5t-216.5 -112.5t-261 110q-102 -111 -213.5 -110.5t-177 67t-65.5 167.5zM246 217q0 -37 26.5 -63.5t62.5 -26.5t69 23.5t47 62.5q-68 86 -129 86q-33 0 -54.5 -22.5t-21.5 -59.5z" />
<glyph unicode="&#xa4;" horiz-adv-x="1366" d="M137 326l137 137q-66 119 -65.5 243t65.5 230l-137 139l170 172l137 -141q113 68 235 68t243 -68l137 141l170 -172l-137 -139q63 -119 63 -243t-63 -230l137 -137l-170 -170l-137 135q-123 -68 -246 -68t-232 68l-137 -135zM446 698.5q0 -96.5 70 -166t167 -69.5 t166 68.5t69 165.5t-69 167t-166 70t-167 -69.5t-70 -166z" />
<glyph unicode="&#xa5;" horiz-adv-x="1429" d="M-10 1155v236h686v-236h-129l213 -340l205 340h-123v236h598v-236h-174l-125 -188h282v-140h-376l-146 -219h522v-139h-522v-233h197v-236h-746v236h197v233h-541v139h541l-156 219h-385v140h291l-135 188h-174z" />
<glyph unicode="&#xa6;" horiz-adv-x="1251" d="M494 340h264v-780h-264v780zM494 610v781h264v-781h-264z" />
<glyph unicode="&#xa7;" horiz-adv-x="1067" d="M49 465q0 199 207 303q-162 117 -162 282t118 262t316.5 97t313 -101.5t116.5 -273.5h-264q-12 164 -178 164q-63 0 -103 -29.5t-40 -84.5t58 -101.5t137 -73t186.5 -82t185.5 -133.5t78 -188q0 -176 -203 -311q156 -96 156 -265.5t-119 -269.5t-307.5 -100t-308 104.5 t-125.5 276.5h264q2 -80 50 -126t117.5 -46t109.5 34.5t40 88.5t-66.5 99.5t-160.5 84.5t-188.5 85t-161 123.5t-66.5 180.5zM303 543q0 -53 39 -92t135 -82l195 -88q94 74 94 157q0 88 -158 156l-213 94q-92 -61 -92 -145z" />
<glyph unicode="&#xa8;" horiz-adv-x="681" d="M-31 1249.5q0 59.5 42 101.5t101.5 42t102.5 -42t43 -101.5t-43 -102.5t-102.5 -43t-101.5 43t-42 102.5zM424 1249.5q0 59.5 42 101.5t101.5 42t102.5 -42t43 -101.5t-43 -102.5t-102.5 -43t-101.5 43t-42 102.5z" />
<glyph unicode="&#xa9;" horiz-adv-x="1515" d="M-8 729.5q0 317.5 224 541.5t541.5 224t542 -224t224.5 -541.5t-224.5 -542t-542 -224.5t-541.5 224.5t-224 542zM143 730q0 -255 180.5 -435t434.5 -180t434 180t180 435t-179 434t-435 179t-435.5 -179t-179.5 -434zM381 728q0 196 104.5 311.5t284.5 115.5 q246 0 334 -244l-162 -39q-53 139 -178 140q-98 0 -152.5 -75t-54.5 -209t52.5 -209t146.5 -75q137 0 186 172l162 -55q-39 -125 -125 -191.5t-211 -66.5q-176 0 -281.5 114.5t-105.5 310.5z" />
<glyph unicode="&#xaa;" horiz-adv-x="811" d="M86 993q0 82 71.5 137.5t163 55.5t166.5 -31v37q0 43 -33.5 71.5t-94 28.5t-107.5 -45l-162 27q74 141 307 141q291 0 291 -219v-246h100v-133h-301v45q-86 -53 -178 -53t-157.5 51t-65.5 133zM281 1000q0 -32 23.5 -54t66 -22t116.5 59v47q-70 43 -112.5 43t-68 -20.5 t-25.5 -52.5z" />
<glyph unicode="&#xab;" horiz-adv-x="1110" d="M12 483l232 486h295l-226 -486l226 -483h-295zM573 483l232 486h295l-226 -486l226 -483h-295z" />
<glyph unicode="&#xac;" horiz-adv-x="1368" d="M119 805v260h1128v-748h-260v488h-868z" />
<glyph unicode="&#xad;" horiz-adv-x="704" d="M72 348v270h559v-270h-559z" />
<glyph unicode="&#xae;" horiz-adv-x="1515" d="M-8 729.5q0 317.5 224 541.5t541.5 224t542 -224t224.5 -541.5t-224.5 -542t-542 -224.5t-541.5 224.5t-224 542zM143 730q0 -255 180.5 -435t434.5 -180t434 180t180 435t-179 434t-435 179t-435.5 -179t-179.5 -434zM412 319v814h399q131 0 195.5 -66t64.5 -161 t-59.5 -155.5t-161.5 -72.5v-4q50 -19 67 -36t31.5 -36.5t23.5 -33t28.5 -45t33 -53t40 -69t46.5 -82.5h-205q-148 303 -228 327q-23 7 -79 7h-30v-334h-166zM578 782h145q174 0 174 112t-170 112h-149v-224z" />
<glyph unicode="&#xaf;" horiz-adv-x="681" d="M-123 1110v209h930v-209h-930z" />
<glyph unicode="&#xb0;" horiz-adv-x="811" d="M59 1069q0 143 100.5 243.5t244 100.5t245 -100.5t101.5 -243.5t-101.5 -244.5t-245 -101.5t-244 101.5t-100.5 244.5zM190 1069q0 -90 62.5 -152.5t151 -62.5t151.5 62.5t63 151.5t-62.5 151.5t-151.5 62.5t-151.5 -61.5t-62.5 -151.5z" />
<glyph unicode="&#xb1;" horiz-adv-x="1368" d="M119 -68v261h1128v-261h-1128zM119 741v260h434v435h260v-435h434v-260h-434v-434h-260v434h-434z" />
<glyph unicode="&#xb2;" horiz-adv-x="681" d="M53 680v37q0 86 35 154.5t83 110.5t97 78q119 87 119 161q0 31 -18.5 50t-54.5 19q-71 0 -78 -149l-183 14q-2 127 72 193.5t201 66.5t200.5 -56t73.5 -137.5t-51 -135.5t-113.5 -83.5t-123 -81t-76.5 -114.5h213v96h155v-223h-551z" />
<glyph unicode="&#xb3;" horiz-adv-x="681" d="M45 909l182 13q4 -125 99 -125q41 0 67.5 27.5t26.5 72.5q0 98 -107 98h-47v131q135 0 135 88q0 33 -20.5 53.5t-54.5 20.5q-80 0 -76 -90h-178q2 90 55 143q80 74 206 74t197.5 -52t71.5 -149t-113 -153q143 -45 144 -170q0 -98 -81 -158.5t-214 -60.5q-268 -1 -293 237 z" />
<glyph unicode="&#xb4;" horiz-adv-x="681" d="M137 1094l160 317h369l-369 -317h-160z" />
<glyph unicode="&#xb5;" horiz-adv-x="1259" d="M150 -434v1403h278v-412q0 -176 42 -266t157 -90q88 0 146 75.5t58 221.5v471h285v-969h-262v129h-4q-31 -74 -89.5 -113t-121.5 -39q-141 0 -207 154h-4v-565h-278z" />
<glyph unicode="&#xb6;" horiz-adv-x="1130" d="M0 980q0 183 114.5 297t323.5 114h692v-261h-112v-1564h-238v1564h-149v-1564h-238v1003q-186 14 -289.5 121t-103.5 290z" />
<glyph unicode="&#xb7;" horiz-adv-x="747" d="M205 645v336h336v-336h-336z" />
<glyph unicode="&#xb8;" horiz-adv-x="681" d="M20 -309q211 0 211 80q0 63 -120 71l36 183h175v-52q82 -14 130 -61t48 -115q0 -133 -119 -177t-361 -32v103z" />
<glyph unicode="&#xb9;" horiz-adv-x="681" d="M131 680v127h117v469h-117v127h322v-596h106v-127h-428z" />
<glyph unicode="&#xba;" horiz-adv-x="768" d="M53 1110q0 137 91.5 221t241 84t239.5 -84t90 -221t-90 -221t-239.5 -84t-241 84t-91.5 221zM260 1108q0 -76 33 -118t91 -42t91 42t33 119t-33 119t-91 42t-91 -43t-33 -119z" />
<glyph unicode="&#xbb;" horiz-adv-x="1110" d="M10 0l226 483l-226 486h295l232 -486l-232 -483h-295zM571 0l226 483l-226 486h295l232 -486l-232 -483h-295z" />
<glyph unicode="&#xbc;" horiz-adv-x="1898" d="M190 680v127h117v469h-117v127h322v-596h106v-127h-428zM356 0l1008 1391h178l-1007 -1391h-179zM1151 293l356 442h183v-430h73v-110h-73v-78h73v-117h-358v117h90v78h-297q-29 68 -47 98zM1323 305h172v211h-4z" />
<glyph unicode="&#xbd;" horiz-adv-x="1898" d="M190 680v127h117v469h-117v127h322v-596h106v-127h-428zM356 0l1008 1391h178l-1007 -1391h-179zM1204 0v37q0 86 35 154.5t84 110.5t97 78q118 88 118 161q0 31 -18.5 50t-53.5 19q-71 0 -80 -149l-182 14q-2 127 72 193.5t201 66.5t200.5 -56t73.5 -137.5t-51 -135.5 t-113.5 -83.5t-123 -81t-77.5 -114.5h213v96h156v-223h-551z" />
<glyph unicode="&#xbe;" horiz-adv-x="1898" d="M117 909l182 13q4 -125 98 -125q41 0 68 27.5t27 72.5q0 98 -107 98h-47v131q135 0 135 88q0 33 -20.5 53.5t-55.5 20.5q-80 0 -75 -90h-179q2 41 17.5 83t34.5 58q80 76 208 76t199.5 -52t71.5 -149t-113 -153q143 -45 144 -170q0 -98 -81 -158.5t-214 -60.5 q-268 -1 -293 237zM356 0l1008 1391h178l-1007 -1391h-179zM1151 293l356 442h183v-430h73v-110h-73v-78h73v-117h-358v117h90v78h-297q-29 68 -47 98zM1323 305h172v211h-4z" />
<glyph unicode="&#xbf;" horiz-adv-x="1153" d="M109 -23.5q0 181.5 116.5 289t315.5 99.5l32 145h144l28 -354l-12 -6q-121 31 -214 -14.5t-93 -160.5q0 -72 47 -128t139 -56t143.5 54.5t32.5 152.5h310q0 -203 -135.5 -312.5t-362.5 -109.5t-359 109.5t-132 291zM479 655v336h336v-336h-336z" />
<glyph unicode="&#xc0;" horiz-adv-x="1429" d="M-4 0v236h174l272 919h-186v236h907v-236h-186l291 -919h164v-236h-676v236h174l-66 237h-360l-76 -237h186v-236h-618zM391 1833h369l160 -317h-160zM565 678h242l-113 420h-4z" />
<glyph unicode="&#xc1;" horiz-adv-x="1429" d="M-4 0v236h174l272 919h-186v236h907v-236h-186l291 -919h164v-236h-676v236h174l-66 237h-360l-76 -237h186v-236h-618zM512 1516l160 317h368l-368 -317h-160zM565 678h242l-113 420h-4z" />
<glyph unicode="&#xc2;" horiz-adv-x="1429" d="M-4 0v236h174l272 919h-186v236h907v-236h-186l291 -919h164v-236h-676v236h174l-66 237h-360l-76 -237h186v-236h-618zM324 1487l241 368h301l244 -368h-174l-223 219l-209 -219h-180zM565 678h242l-113 420h-4z" />
<glyph unicode="&#xc3;" horiz-adv-x="1429" d="M-4 0v236h174l272 919h-186v236h907v-236h-186l291 -919h164v-236h-676v236h174l-66 237h-360l-76 -237h186v-236h-618zM326 1509q0 143 63 230q61 90 168 90q63 0 173 -58.5t146 -58.5t61.5 32t27.5 81h143q4 -139 -64.5 -230.5t-169.5 -91.5q-55 0 -169.5 57.5 t-149.5 57.5q-76 0 -80 -109h-149zM565 678h242l-113 420h-4z" />
<glyph unicode="&#xc4;" horiz-adv-x="1429" d="M-4 0v236h174l272 919h-186v236h907v-236h-186l291 -919h164v-236h-676v236h174l-66 237h-360l-76 -237h186v-236h-618zM344 1671.5q0 59.5 42 101.5t101.5 42t102.5 -42t43 -101.5t-43 -102.5t-102.5 -43t-101.5 43t-42 102.5zM565 678h242l-113 420h-4zM799 1671.5 q0 59.5 42 101.5t101 42t102 -42t43 -101.5t-43 -102.5t-102 -43t-101 43t-42 102.5z" />
<glyph unicode="&#xc5;" horiz-adv-x="1429" d="M-4 0v236h174l272 919h-186v236h907v-236h-186l291 -919h164v-236h-676v236h174l-66 237h-360l-76 -237h186v-236h-618zM504 1690q0 88 61.5 149.5t149.5 61.5t150.5 -61.5t62.5 -149.5t-62.5 -150.5t-150.5 -62.5t-149.5 62.5t-61.5 150.5zM565 678h242l-113 420h-4z M606 1689.5q0 -47.5 32 -79t78 -31.5t77.5 31.5t31.5 78t-31.5 78t-78.5 31.5t-78 -30.5t-31 -78z" />
<glyph unicode="&#xc6;" horiz-adv-x="2027" d="M-4 0v236h145l398 919h-207v236h1622v-441h-266v205h-416v-317h336v-236h-336v-366h416v210h266v-446h-1202v236h157v366h-334l-163 -366h163v-236h-579zM662 807h247v371h-90z" />
<glyph unicode="&#xc7;" horiz-adv-x="1599" d="M76 696q0 317 202.5 517t528.5 200q252 0 418 -131v109h235v-490h-235q-49 127 -114 177t-114 68.5t-118 18.5q-186 0 -300 -130t-114 -338t108.5 -334.5t268 -126.5t261 95t140.5 267l275 -131q-139 -485 -711 -485l-4 -23q86 -8 137 -57t51 -119q0 -133 -118.5 -177 t-360.5 -32v102q211 0 211 80q0 64 -121 72l35 170q-156 29 -270.5 103.5t-174.5 176.5q-116 193 -116 418z" />
<glyph unicode="&#xc8;" horiz-adv-x="1366" d="M70 0v236h163v919h-163v236h1222v-441h-264v205h-432v-319h348v-236h-348v-364h432v206h264v-442h-1222zM358 1833h369l160 -317h-160z" />
<glyph unicode="&#xc9;" horiz-adv-x="1366" d="M70 0v236h163v919h-163v236h1222v-441h-264v205h-432v-319h348v-236h-348v-364h432v206h264v-442h-1222zM479 1516l160 317h369l-369 -317h-160z" />
<glyph unicode="&#xca;" horiz-adv-x="1366" d="M70 0v236h163v919h-163v236h1222v-441h-264v205h-432v-319h348v-236h-348v-364h432v206h264v-442h-1222zM291 1487l241 368h302l243 -368h-174l-223 219l-209 -219h-180z" />
<glyph unicode="&#xcb;" horiz-adv-x="1366" d="M70 0v236h163v919h-163v236h1222v-441h-264v205h-432v-319h348v-236h-348v-364h432v206h264v-442h-1222zM311 1671.5q0 59.5 42 101.5t101.5 42t102.5 -42t43 -101.5t-43 -102.5t-102.5 -43t-101.5 43t-42 102.5zM766 1671.5q0 59.5 42 101.5t101.5 42t102.5 -42 t43 -101.5t-43 -102.5t-102.5 -43t-101.5 43t-42 102.5z" />
<glyph unicode="&#xcc;" horiz-adv-x="874" d="M45 0v236h211v919h-211v236h784v-236h-211v-919h211v-236h-784zM113 1833h368l160 -317h-160z" />
<glyph unicode="&#xcd;" horiz-adv-x="874" d="M45 0v236h211v919h-211v236h784v-236h-211v-919h211v-236h-784zM233 1516l160 317h369l-369 -317h-160z" />
<glyph unicode="&#xce;" horiz-adv-x="874" d="M45 0v236h211v919h-211v236h784v-236h-211v-919h211v-236h-784zM45 1487l242 368h301l243 -368h-174l-223 219l-209 -219h-180z" />
<glyph unicode="&#xcf;" horiz-adv-x="874" d="M45 0v236h211v919h-211v236h784v-236h-211v-919h211v-236h-784zM66 1671.5q0 59.5 42 101.5t101 42t102 -42t43 -101.5t-43 -102.5t-102 -43t-101 43t-42 102.5zM520 1671.5q0 59.5 42 101.5t101.5 42t102.5 -42t43 -101.5t-43 -102.5t-102.5 -43t-101.5 43t-42 102.5z " />
<glyph unicode="&#xd0;" horiz-adv-x="1642" d="M68 0v236h211v366h-211v186h211v367h-211v236h727q195 0 330 -43t237 -146q199 -199 199 -499t-175.5 -501.5t-490.5 -201.5h-827zM641 236h137q203 0 304.5 120.5t101.5 339.5t-107.5 339t-310.5 120h-125v-367h256v-186h-256v-366z" />
<glyph unicode="&#xd1;" horiz-adv-x="1622" d="M43 0v236h186v919h-186v236h582l510 -869h4v633h-181v236h625v-236h-197v-1155h-311l-594 1022h-4v-786h174v-236h-608zM422 1509q0 143 63 230q61 90 168 90q63 0 173 -58.5t146 -58.5t61.5 32t27.5 81h143q4 -139 -64.5 -230.5t-168.5 -91.5q-55 0 -170 57.5t-150 57.5 q-76 0 -80 -109h-149z" />
<glyph unicode="&#xd2;" horiz-adv-x="1748" d="M102 702.5q0 290.5 203.5 500.5t568.5 210q188 0 339 -59.5t244 -160.5q192 -209 192 -497q0 -282 -189 -490q-92 -102 -243.5 -163t-341 -61t-341 60t-243.5 162q-189 208 -189 498.5zM492 706.5q0 -217.5 106.5 -344t270 -126.5t277.5 118.5t114 336.5t-110 343 t-270 125t-274 -117.5t-114 -335zM551 1833h369l159 -317h-159z" />
<glyph unicode="&#xd3;" horiz-adv-x="1748" d="M102 702.5q0 290.5 203.5 500.5t568.5 210q188 0 339 -59.5t244 -160.5q192 -209 192 -497q0 -282 -189 -490q-92 -102 -243.5 -163t-341 -61t-341 60t-243.5 162q-189 208 -189 498.5zM492 706.5q0 -217.5 106.5 -344t270 -126.5t277.5 118.5t114 336.5t-110 343 t-270 125t-274 -117.5t-114 -335zM672 1516l159 317h369l-369 -317h-159z" />
<glyph unicode="&#xd4;" horiz-adv-x="1748" d="M102 702.5q0 290.5 203.5 500.5t568.5 210q188 0 339 -59.5t244 -160.5q192 -209 192 -497q0 -282 -189 -490q-92 -102 -243.5 -163t-341 -61t-341 60t-243.5 162q-189 208 -189 498.5zM483 1487l242 368h301l244 -368h-174l-224 219l-208 -219h-181zM492 706.5 q0 -217.5 106.5 -344t270 -126.5t277.5 118.5t114 336.5t-110 343t-270 125t-274 -117.5t-114 -335z" />
<glyph unicode="&#xd5;" horiz-adv-x="1748" d="M102 702.5q0 290.5 203.5 500.5t568.5 210q188 0 339 -59.5t244 -160.5q192 -209 192 -497q0 -282 -189 -490q-92 -102 -243.5 -163t-341 -61t-341 60t-243.5 162q-189 208 -189 498.5zM485 1509q0 143 64 230q61 90 168 90q63 0 172.5 -58.5t145.5 -58.5t61.5 32 t27.5 81h144q4 -139 -64.5 -230.5t-169.5 -91.5q-55 0 -169.5 57.5t-149.5 57.5q-76 0 -80 -109h-150zM492 706.5q0 -217.5 106.5 -344t270 -126.5t277.5 118.5t114 336.5t-110 343t-270 125t-274 -117.5t-114 -335z" />
<glyph unicode="&#xd6;" horiz-adv-x="1748" d="M102 702.5q0 290.5 203.5 500.5t568.5 210q188 0 339 -59.5t244 -160.5q192 -209 192 -497q0 -282 -189 -490q-92 -102 -243.5 -163t-341 -61t-341 60t-243.5 162q-189 208 -189 498.5zM492 706.5q0 -217.5 106.5 -344t270 -126.5t277.5 118.5t114 336.5t-110 343 t-270 125t-274 -117.5t-114 -335zM504 1671.5q0 59.5 42 101.5t101.5 42t102.5 -42t43 -101.5t-43 -102.5t-102.5 -43t-101.5 43t-42 102.5zM958 1671.5q0 59.5 42 101.5t101.5 42t102.5 -42t43 -101.5t-43 -102.5t-102.5 -43t-101.5 43t-42 102.5z" />
<glyph unicode="&#xd7;" horiz-adv-x="1366" d="M143 1036l185 185l356 -357l356 357l185 -185l-357 -356l353 -352l-183 -183l-354 355l-354 -355l-183 183l353 352z" />
<glyph unicode="&#xd8;" horiz-adv-x="1748" d="M102 698q0 267 180 480q89 106 243.5 170.5t351.5 64.5q260 1 438 -108l117 137l116 -86l-116 -137l6 -5q211 -207 211 -516q0 -278 -189 -490q-92 -104 -243.5 -165t-339.5 -61q-256 0 -437 108l-137 -156l-117 66l142 174q-225 207 -226 524zM492 700q0 -155 61 -270 l561 643q-100 86 -237 86q-172 0 -278.5 -127t-106.5 -332zM641 322q104 -86 236 -86q170 0 276.5 126.5t106 308t-57.5 292.5z" />
<glyph unicode="&#xd9;" horiz-adv-x="1386" d="M29 1155v236h647v-236h-121v-706q0 -111 41 -170.5t139 -59.5q193 0 193 217v719h-115v236h537v-236h-174v-778q0 -115 -46.5 -197t-121.5 -122q-140 -74 -312 -74q-227 0 -365 103t-138 341v727h-164zM369 1833h368l160 -317h-160z" />
<glyph unicode="&#xda;" horiz-adv-x="1386" d="M29 1155v236h647v-236h-121v-706q0 -111 41 -170.5t139 -59.5q193 0 193 217v719h-115v236h537v-236h-174v-778q0 -115 -46.5 -197t-121.5 -122q-140 -74 -312 -74q-227 0 -365 103t-138 341v727h-164zM489 1516l160 317h369l-369 -317h-160z" />
<glyph unicode="&#xdb;" horiz-adv-x="1386" d="M29 1155v236h647v-236h-121v-706q0 -111 41 -170.5t139 -59.5q193 0 193 217v719h-115v236h537v-236h-174v-778q0 -115 -46.5 -197t-121.5 -122q-140 -74 -312 -74q-227 0 -365 103t-138 341v727h-164zM301 1487l242 368h301l243 -368h-174l-223 219l-209 -219h-180z" />
<glyph unicode="&#xdc;" horiz-adv-x="1386" d="M29 1155v236h647v-236h-121v-706q0 -111 41 -170.5t139 -59.5q193 0 193 217v719h-115v236h537v-236h-174v-778q0 -115 -46.5 -197t-121.5 -122q-140 -74 -312 -74q-227 0 -365 103t-138 341v727h-164zM322 1671.5q0 59.5 42 101.5t101 42t102 -42t43 -101.5t-43 -102.5 t-102 -43t-101 43t-42 102.5zM776 1671.5q0 59.5 42 101.5t101.5 42t102.5 -42t43 -101.5t-43 -102.5t-102.5 -43t-101.5 43t-42 102.5z" />
<glyph unicode="&#xdd;" horiz-adv-x="1429" d="M-8 1155v236h684v-236h-127l211 -340l203 340h-121v236h596v-236h-174l-363 -545v-374h197v-236h-746v236h197v374l-383 545h-174zM512 1516l160 317h368l-368 -317h-160z" />
<glyph unicode="&#xde;" horiz-adv-x="1366" d="M63 0v236h175v919h-175v236h730v-236h-193v-78h201q252 0 389 -96t137 -279.5t-132 -286t-384 -102.5h-211v-77h193v-236h-730zM600 520h135q203 0 203 174q0 88 -56.5 132t-146.5 44h-135v-350z" />
<glyph unicode="&#xdf;" horiz-adv-x="1323" d="M45 0v223h164v752q0 197 106 303q137 137 361.5 137t352.5 -90t128 -246q0 -199 -213 -286q279 -92 279 -385q0 -195 -101.5 -308.5t-277.5 -113.5q-76 0 -152 30v207q29 -12 60 -12q154 0 153 203q0 139 -54 192t-159 60v225q72 4 114 45t42 108.5t-46 112.5t-125 45 t-117 -57.5t-38 -179.5v-742h70v-223h-547z" />
<glyph unicode="&#xe0;" horiz-adv-x="1193" d="M82 294q0 136 111.5 228t285.5 92q94 0 219 -43v54q0 76 -51 123t-141 47t-168 -76l-250 43q113 229 469 229q238 0 346.5 -88t108.5 -282v-398h155v-223h-469v76q-127 -90 -270.5 -90t-244.5 86t-101 222zM272 1411h369l160 -317h-160zM379 306q0 -54 37 -91t90 -37 q82 0 192 101v79q-106 70 -172.5 70t-106.5 -34t-40 -88z" />
<glyph unicode="&#xe1;" horiz-adv-x="1193" d="M82 294q0 136 111.5 228t285.5 92q94 0 219 -43v54q0 76 -51 123t-141 47t-168 -76l-250 43q113 229 469 229q238 0 346.5 -88t108.5 -282v-398h155v-223h-469v76q-127 -90 -270.5 -90t-244.5 86t-101 222zM379 306q0 -54 37 -91t90 -37q82 0 192 101v79 q-106 70 -172.5 70t-106.5 -34t-40 -88zM393 1094l160 317h369l-369 -317h-160z" />
<glyph unicode="&#xe2;" horiz-adv-x="1193" d="M82 294q0 136 111.5 228t285.5 92q94 0 219 -43v54q0 76 -51 123t-141 47t-168 -76l-250 43q113 229 469 229q238 0 346.5 -88t108.5 -282v-398h155v-223h-469v76q-127 -90 -270.5 -90t-244.5 86t-101 222zM205 1065l241 369h302l243 -369h-174l-223 219l-209 -219h-180z M379 306q0 -54 37 -91t90 -37q82 0 192 101v79q-106 70 -172.5 70t-106.5 -34t-40 -88z" />
<glyph unicode="&#xe3;" horiz-adv-x="1193" d="M82 294q0 136 111.5 228t285.5 92q94 0 219 -43v54q0 76 -51 123t-141 47t-168 -76l-250 43q113 229 469 229q238 0 346.5 -88t108.5 -282v-398h155v-223h-469v76q-127 -90 -270.5 -90t-244.5 86t-101 222zM207 1087q0 143 63 230q61 90 168 90q63 0 173 -58.5t146 -58.5 t61.5 32t27.5 81h143q4 -139 -64.5 -230.5t-168.5 -91.5q-55 0 -170 57.5t-150 57.5q-76 0 -80 -109h-149zM379 306q0 -54 37 -91t90 -37q82 0 192 101v79q-106 70 -172.5 70t-106.5 -34t-40 -88z" />
<glyph unicode="&#xe4;" horiz-adv-x="1193" d="M82 294q0 136 111.5 228t285.5 92q94 0 219 -43v54q0 76 -51 123t-141 47t-168 -76l-250 43q113 229 469 229q238 0 346.5 -88t108.5 -282v-398h155v-223h-469v76q-127 -90 -270.5 -90t-244.5 86t-101 222zM225 1249.5q0 59.5 42 101.5t101.5 42t102.5 -42t43 -101.5 t-43 -102.5t-102.5 -43t-101.5 43t-42 102.5zM379 306q0 -54 37 -91t90 -37q82 0 192 101v79q-106 70 -172.5 70t-106.5 -34t-40 -88zM680 1249.5q0 59.5 42 101.5t101.5 42t102.5 -42t43 -101.5t-43 -102.5t-102.5 -43t-101.5 43t-42 102.5z" />
<glyph unicode="&#xe5;" horiz-adv-x="1193" d="M82 294q0 136 111.5 228t285.5 92q94 0 219 -43v54q0 76 -51 123t-141 47t-168 -76l-250 43q113 229 469 229q238 0 346.5 -88t108.5 -282v-398h155v-223h-469v76q-127 -90 -270.5 -90t-244.5 86t-101 222zM379 306q0 -54 37 -91t90 -37q82 0 192 101v79 q-106 70 -172.5 70t-106.5 -34t-40 -88zM385 1268q0 88 61.5 149.5t149.5 61.5t150.5 -61.5t62.5 -149.5t-62.5 -150.5t-150.5 -62.5t-149.5 62.5t-61.5 150.5zM487 1268q0 -47 32 -79t78 -32t78 32t32 78t-32 77.5t-79 31.5t-78 -30.5t-31 -77.5z" />
<glyph unicode="&#xe6;" horiz-adv-x="1812" d="M119 764q121 227 471 227q211 0 346 -94q123 94 297 94q246 0 381 -152.5t133 -414.5h-709q8 -109 69.5 -173.5t167 -64.5t216.5 111l240 -74q-70 -117 -194 -181.5t-282 -64.5q-285 0 -436 203q-104 -109 -190 -156t-180 -47q-143 0 -235.5 88.5t-92.5 228.5t102.5 230 t268.5 90q115 0 233 -47v31q0 96 -54.5 144.5t-135 48.5t-170.5 -72zM416 300q0 -54 28.5 -87t73.5 -33q88 0 207 107v71q-104 74 -168.5 74t-102.5 -39t-38 -93zM1036 594h398q-16 88 -70.5 138t-134.5 50t-132.5 -50t-60.5 -138z" />
<glyph unicode="&#xe7;" horiz-adv-x="1153" d="M66 499.5q0 200.5 139 342t350 141.5q150 0 293 -94v80h213v-394h-213q-74 162 -238 162q-104 0 -165.5 -67.5t-61.5 -188.5t58.5 -192.5t146.5 -71.5q171 0 260 160l239 -107q-72 -154 -188.5 -223.5t-298.5 -69.5l-4 -14q88 -10 139 -58t51 -118q0 -133 -118.5 -177 t-360.5 -32v103q211 0 211 79q0 64 -121 72l49 168q-178 41 -279 170t-101 329.5z" />
<glyph unicode="&#xe8;" horiz-adv-x="1173" d="M76 468q0 226 147.5 374.5t373.5 148.5t372.5 -158.5t128.5 -412.5h-709q2 -98 59.5 -170t178.5 -72q61 0 109 25t116 88l246 -76q-154 -238 -475 -238q-252 0 -399.5 132.5t-147.5 358.5zM262 1411h369l160 -317h-160zM389 592h404q-12 92 -66.5 144t-138.5 52 q-172 1 -199 -196z" />
<glyph unicode="&#xe9;" horiz-adv-x="1173" d="M76 468q0 226 147.5 374.5t373.5 148.5t372.5 -158.5t128.5 -412.5h-709q2 -98 59.5 -170t178.5 -72q61 0 109 25t116 88l246 -76q-154 -238 -475 -238q-252 0 -399.5 132.5t-147.5 358.5zM383 1094l160 317h368l-368 -317h-160zM389 592h404q-12 92 -66.5 144t-138.5 52 q-172 1 -199 -196z" />
<glyph unicode="&#xea;" horiz-adv-x="1173" d="M76 468q0 226 147.5 374.5t373.5 148.5t372.5 -158.5t128.5 -412.5h-709q2 -98 59.5 -170t178.5 -72q61 0 109 25t116 88l246 -76q-154 -238 -475 -238q-252 0 -399.5 132.5t-147.5 358.5zM195 1065l241 369h301l244 -369h-174l-223 219l-209 -219h-180zM389 592h404 q-12 92 -66.5 144t-138.5 52q-172 1 -199 -196z" />
<glyph unicode="&#xeb;" horiz-adv-x="1173" d="M76 468q0 226 147.5 374.5t373.5 148.5t372.5 -158.5t128.5 -412.5h-709q2 -98 59.5 -170t178.5 -72q61 0 109 25t116 88l246 -76q-154 -238 -475 -238q-252 0 -399.5 132.5t-147.5 358.5zM215 1249.5q0 59.5 42 101.5t101.5 42t102.5 -42t43 -101.5t-43 -102.5 t-102.5 -43t-101.5 43t-42 102.5zM389 592h404q-12 92 -66.5 144t-138.5 52q-172 1 -199 -196zM670 1249.5q0 59.5 42 101.5t101 42t102 -42t43 -101.5t-43 -102.5t-102 -43t-101 43t-42 102.5z" />
<glyph unicode="&#xec;" d="M39 1411h369l159 -317h-159zM88 0v223h141v522h-141v224h455v-746h141v-223h-596z" />
<glyph unicode="&#xed;" d="M88 0v223h141v522h-141v224h455v-746h141v-223h-596zM160 1094l159 317h369l-369 -317h-159z" />
<glyph unicode="&#xee;" d="M-29 1065l242 369h301l244 -369h-174l-224 219l-208 -219h-181zM88 0v223h141v522h-141v224h455v-746h141v-223h-596z" />
<glyph unicode="&#xef;" d="M-8 1249.5q0 59.5 42 101.5t101.5 42t102.5 -42t43 -101.5t-43 -102.5t-102.5 -43t-101.5 43t-42 102.5zM88 0v223h141v522h-141v224h455v-746h141v-223h-596zM446 1249.5q0 59.5 42 101.5t101.5 42t102.5 -42t43 -101.5t-43 -102.5t-102.5 -43t-101.5 43t-42 102.5z" />
<glyph unicode="&#xf0;" horiz-adv-x="1173" d="M82 490q0 226 144.5 365.5t316.5 139.5q117 0 207 -71l4 4q-45 88 -183 196l-258 -100l-133 100l256 101q-92 68 -162 100l222 88q92 -39 172 -96l245 96l138 -102l-256 -99q150 -141 232.5 -317t82.5 -330q0 -266 -143.5 -424.5t-374.5 -158.5t-370.5 141t-139.5 367z M399 504q0 -283 191 -283q94 0 148.5 75t54.5 199t-52.5 192.5t-141.5 68.5t-144.5 -69.5t-55.5 -182.5z" />
<glyph unicode="&#xf1;" horiz-adv-x="1280" d="M74 0v223h149v522h-149v224h463v-90q141 104 269 104t216 -77t88 -253v-430h141v-223h-454v614q0 109 -90 109q-82 0 -170 -64v-436h129v-223h-592zM250 1087q0 143 63 230q61 90 168 90q63 0 173 -58.5t146 -58.5t61.5 32t27.5 81h143q4 -139 -64.5 -230.5t-168.5 -91.5 q-55 0 -170 57.5t-150 57.5q-76 0 -80 -109h-149z" />
<glyph unicode="&#xf2;" horiz-adv-x="1173" d="M78 488.5q0 238.5 148.5 370.5t364.5 132t360.5 -135t144.5 -366.5t-141.5 -372t-365.5 -140.5t-367.5 136.5t-143.5 375zM262 1411h369l160 -317h-160zM395 483q0 -127 50.5 -196.5t141.5 -69.5t141 70.5t50 197.5t-50 197t-142 70t-141.5 -71t-49.5 -198z" />
<glyph unicode="&#xf3;" horiz-adv-x="1173" d="M78 488.5q0 238.5 148.5 370.5t364.5 132t360.5 -135t144.5 -366.5t-141.5 -372t-365.5 -140.5t-367.5 136.5t-143.5 375zM383 1094l160 317h368l-368 -317h-160zM395 483q0 -127 50.5 -196.5t141.5 -69.5t141 70.5t50 197.5t-50 197t-142 70t-141.5 -71t-49.5 -198z" />
<glyph unicode="&#xf4;" horiz-adv-x="1173" d="M78 488.5q0 238.5 148.5 370.5t364.5 132t360.5 -135t144.5 -366.5t-141.5 -372t-365.5 -140.5t-367.5 136.5t-143.5 375zM195 1065l241 369h301l244 -369h-174l-223 219l-209 -219h-180zM395 483q0 -127 50.5 -196.5t141.5 -69.5t141 70.5t50 197.5t-50 197t-142 70 t-141.5 -71t-49.5 -198z" />
<glyph unicode="&#xf5;" horiz-adv-x="1173" d="M78 488.5q0 238.5 148.5 370.5t364.5 132t360.5 -135t144.5 -366.5t-141.5 -372t-365.5 -140.5t-367.5 136.5t-143.5 375zM197 1087q0 143 63 230q61 90 168 90q63 0 173 -58.5t146 -58.5t61.5 32t27.5 81h143q4 -139 -64.5 -230.5t-169.5 -91.5q-55 0 -169.5 57.5 t-149.5 57.5q-76 0 -80 -109h-149zM395 483q0 -127 50.5 -196.5t141.5 -69.5t141 70.5t50 197.5t-50 197t-142 70t-141.5 -71t-49.5 -198z" />
<glyph unicode="&#xf6;" horiz-adv-x="1173" d="M78 488.5q0 238.5 148.5 370.5t364.5 132t360.5 -135t144.5 -366.5t-141.5 -372t-365.5 -140.5t-367.5 136.5t-143.5 375zM215 1249.5q0 59.5 42 101.5t101.5 42t102.5 -42t43 -101.5t-43 -102.5t-102.5 -43t-101.5 43t-42 102.5zM395 483q0 -127 50.5 -196.5 t141.5 -69.5t141 70.5t50 197.5t-50 197t-142 70t-141.5 -71t-49.5 -198zM670 1249.5q0 59.5 42 101.5t101 42t102 -42t43 -101.5t-43 -102.5t-102 -43t-101 43t-42 102.5z" />
<glyph unicode="&#xf7;" horiz-adv-x="1368" d="M119 561v260h1128v-260h-1128zM530 264.5q0 63.5 44 107.5t107.5 44t109 -44t45.5 -107.5t-45.5 -108.5t-109 -45t-107.5 45t-44 108.5zM530 1120.5q0 63.5 44 107.5t107.5 44t109 -44t45.5 -107.5t-45.5 -108.5t-109 -45t-107.5 45t-44 108.5z" />
<glyph unicode="&#xf8;" horiz-adv-x="1173" d="M78 491q0 223 148.5 361.5t359.5 138.5q160 0 286 -78l123 144l95 -84l-119 -137q125 -135 125 -357.5t-145.5 -362t-360.5 -139.5q-170 0 -287 78l-121 -143l-96 88l119 131q-127 137 -127 360zM395 496q1 -62 19 -121l284 336q-47 41 -122.5 41t-128 -70t-52.5 -186z M477 258q47 -41 124 -41t127 69.5t50 190.5q0 56 -16 115z" />
<glyph unicode="&#xf9;" horiz-adv-x="1280" d="M29 745v224h454v-604q0 -72 20.5 -98.5t83.5 -26.5t156 69v436h-129v224h443v-746h149v-223h-463v82q-139 -96 -276 -96t-217 80.5t-80 220.5v458h-141zM315 1411h369l160 -317h-160z" />
<glyph unicode="&#xfa;" horiz-adv-x="1280" d="M29 745v224h454v-604q0 -72 20.5 -98.5t83.5 -26.5t156 69v436h-129v224h443v-746h149v-223h-463v82q-139 -96 -276 -96t-217 80.5t-80 220.5v458h-141zM436 1094l160 317h369l-369 -317h-160z" />
<glyph unicode="&#xfb;" horiz-adv-x="1280" d="M29 745v224h454v-604q0 -72 20.5 -98.5t83.5 -26.5t156 69v436h-129v224h443v-746h149v-223h-463v82q-139 -96 -276 -96t-217 80.5t-80 220.5v458h-141zM248 1065l241 369h302l243 -369h-174l-223 219l-209 -219h-180z" />
<glyph unicode="&#xfc;" horiz-adv-x="1280" d="M29 745v224h454v-604q0 -72 20.5 -98.5t83.5 -26.5t156 69v436h-129v224h443v-746h149v-223h-463v82q-139 -96 -276 -96t-217 80.5t-80 220.5v458h-141zM268 1249.5q0 59.5 42 101.5t101.5 42t102.5 -42t43 -101.5t-43 -102.5t-102.5 -43t-101.5 43t-42 102.5z M723 1249.5q0 59.5 42 101.5t101.5 42t102.5 -42t43 -101.5t-43 -102.5t-102.5 -43t-101.5 43t-42 102.5z" />
<glyph unicode="&#xfd;" horiz-adv-x="1216" d="M8 745v224h561v-224h-94l162 -434l172 434h-104v224h491v-224h-141l-465 -1179h-338v223h184l64 172l-350 784h-142zM406 1094l159 317h369l-369 -317h-159z" />
<glyph unicode="&#xfe;" horiz-adv-x="1280" d="M35 -211h164v1378h-164v224h477v-545q82 80 140.5 108.5t135.5 28.5q180 0 298 -144.5t118 -364.5t-116.5 -358.5t-303.5 -138.5q-80 0 -140 28t-132 93v-309h190v-223h-667v223zM510 476q0 -120 51 -189.5t139 -69.5t137.5 69.5t49.5 189.5t-51.5 186.5t-139.5 66.5 t-137 -66.5t-49 -186.5z" />
<glyph unicode="&#xff;" horiz-adv-x="1216" d="M8 745v224h561v-224h-94l162 -434l172 434h-104v224h491v-224h-141l-465 -1179h-338v223h184l64 172l-350 784h-142zM238 1249.5q0 59.5 42 101.5t101 42t102 -42t43 -101.5t-43 -102.5t-102 -43t-101 43t-42 102.5zM692 1249.5q0 59.5 42 101.5t101.5 42t102.5 -42 t43 -101.5t-43 -102.5t-102.5 -43t-101.5 43t-42 102.5z" />
<glyph unicode="&#x152;" horiz-adv-x="2068" d="M98 688q0 336 193 529q94 94 228 134t366 40h1110v-443h-264v207h-402v-321h322v-236h-322v-362h402v208h264v-444h-1170q-188 0 -331.5 56.5t-227.5 153.5q-168 194 -168 478zM475 679q0 -192 100.5 -316.5t305.5 -124.5h86v917h-123q-109 0 -184.5 -41t-113.5 -112 q-71 -131 -71 -323z" />
<glyph unicode="&#x153;" horiz-adv-x="2068" d="M47 481q0 147 80 273q151 237 483 237q238 0 418 -143q143 143 401 143t415 -177t130 -392h-792q10 -109 87 -172.5t195 -63.5q167 0 265 111l245 -74q-53 -115 -189 -180.5t-317 -65.5q-289 0 -440 140q-180 -139 -433 -139.5t-400.5 147t-147.5 356.5zM365 486 q0 -128 71.5 -216t180 -88t177 87.5t68.5 218.5t-69.5 213.5t-177.5 82.5t-179 -85t-71 -213zM1192 594h477q-20 88 -85.5 140t-158 52t-158 -54t-75.5 -138z" />
<glyph unicode="&#x178;" horiz-adv-x="1429" d="M-8 1155v236h684v-236h-127l211 -340l203 340h-121v236h596v-236h-174l-363 -545v-374h197v-236h-746v236h197v374l-383 545h-174zM344 1671.5q0 59.5 42 101.5t101.5 42t102.5 -42t43 -101.5t-43 -102.5t-102.5 -43t-101.5 43t-42 102.5zM799 1671.5q0 59.5 42 101.5 t101 42t102 -42t43 -101.5t-43 -102.5t-102 -43t-101 43t-42 102.5z" />
<glyph unicode="&#x2c6;" horiz-adv-x="681" d="M-51 1065l241 369h302l243 -369h-174l-223 219l-209 -219h-180z" />
<glyph unicode="&#x2dc;" horiz-adv-x="681" d="M-49 1087q0 143 63 230q61 90 168 90q63 0 173 -58.5t146 -58.5t61.5 32t27.5 81h143q4 -139 -64.5 -230.5t-168.5 -91.5q-55 0 -170 57.5t-150 57.5q-76 0 -80 -109h-149z" />
<glyph unicode="&#x2000;" horiz-adv-x="950" />
<glyph unicode="&#x2001;" horiz-adv-x="1901" />
<glyph unicode="&#x2002;" horiz-adv-x="950" />
<glyph unicode="&#x2003;" horiz-adv-x="1901" />
<glyph unicode="&#x2004;" horiz-adv-x="633" />
<glyph unicode="&#x2005;" horiz-adv-x="475" />
<glyph unicode="&#x2006;" horiz-adv-x="316" />
<glyph unicode="&#x2007;" horiz-adv-x="316" />
<glyph unicode="&#x2008;" horiz-adv-x="237" />
<glyph unicode="&#x2009;" horiz-adv-x="380" />
<glyph unicode="&#x200a;" horiz-adv-x="105" />
<glyph unicode="&#x2010;" horiz-adv-x="704" d="M72 348v270h559v-270h-559z" />
<glyph unicode="&#x2011;" horiz-adv-x="704" d="M72 348v270h559v-270h-559z" />
<glyph unicode="&#x2012;" horiz-adv-x="704" d="M72 348v270h559v-270h-559z" />
<glyph unicode="&#x2013;" horiz-adv-x="1024" d="M-12 387v250h1048v-250h-1048z" />
<glyph unicode="&#x2014;" horiz-adv-x="2048" d="M-12 387v250h2072v-250h-2072z" />
<glyph unicode="&#x2018;" d="M195 688v336q0 190 77.5 278.5t255.5 88.5v-152q-88 -10 -127 -60.5t-39 -154.5h168v-336h-335z" />
<glyph unicode="&#x2019;" d="M195 1055v336h335v-336q0 -190 -77.5 -278.5t-255.5 -88.5v152q88 10 126.5 60t38.5 155h-167z" />
<glyph unicode="&#x201a;" d="M195 0v336h335v-336q0 -190 -77.5 -278.5t-255.5 -88.5v152q88 10 126.5 60.5t38.5 154.5h-167z" />
<glyph unicode="&#x201c;" horiz-adv-x="1216" d="M186 688v336q0 190 78 278.5t256 88.5v-152q-88 -10 -127 -59.5t-39 -155.5h168v-336h-336zM696 688v336q0 190 78 278.5t256 88.5v-152q-88 -10 -127 -60.5t-39 -154.5h168v-336h-336z" />
<glyph unicode="&#x201d;" horiz-adv-x="1216" d="M184 1055v336h336v-336q0 -190 -77.5 -278.5t-256.5 -88.5v152q88 10 127 60t39 155h-168zM694 1055v336h336v-336q0 -190 -78 -278.5t-256 -88.5v152q88 10 127 60t39 155h-168z" />
<glyph unicode="&#x201e;" horiz-adv-x="1216" d="M184 0v336h336v-336q0 -190 -77.5 -278.5t-256.5 -88.5v152q88 10 127 60.5t39 154.5h-168zM694 0v336h336v-336q0 -190 -78 -278.5t-256 -88.5v152q88 10 127 60.5t39 154.5h-168z" />
<glyph unicode="&#x2022;" d="M78 698.5q0 118.5 83 201.5t201.5 83t202.5 -83t84 -201.5t-84 -202.5t-202.5 -84t-201.5 84t-83 202.5z" />
<glyph unicode="&#x2026;" horiz-adv-x="2048" d="M174 0v336h336v-336h-336zM856 0v336h336v-336h-336zM1538 0v336h336v-336h-336z" />
<glyph unicode="&#x202f;" horiz-adv-x="380" />
<glyph unicode="&#x2039;" horiz-adv-x="555" d="M10 483l232 486h295l-226 -486l226 -483h-295z" />
<glyph unicode="&#x203a;" horiz-adv-x="555" d="M18 0l226 483l-226 486h295l232 -486l-232 -483h-295z" />
<glyph unicode="&#x205f;" horiz-adv-x="475" />
<glyph unicode="&#x20ac;" horiz-adv-x="1130" d="M4 475v160h105v127h-105v160h121q39 229 154.5 361t289.5 132q84 0 142.5 -25.5t119.5 -86.5v88h181v-404h-176q-39 104 -82 153t-134.5 49.5t-132.5 -67t-55 -200.5h285v-160h-291v-127h291v-160h-283q27 -268 172 -268q100 0 148.5 56t64.5 167l230 -53 q-56 -280 -237 -357q-91 -38 -226 -38q-389 0 -463 493h-119z" />
<glyph unicode="&#x2122;" horiz-adv-x="2048" d="M147 1249v142h666v-142h-246v-676h-166v676h-254zM909 573v818h260l148 -564h4l147 564h261v-818h-158v652h-4l-174 -652h-152l-170 652h-4v-652h-158z" />
<glyph unicode="&#xe000;" horiz-adv-x="972" d="M0 0v973h973v-973h-973z" />
</font>
</defs>
</svg>
